# xmcd
#
# Track frame offsets: 
#        150
#        13237
#        35621
#        56057
#        69387
#        87603
#        105669
#        126832
#        157391
#        182889
#        203571
#        225512
#        241330
#        260297
#        273601
#        299229
#        315579
#
# Disc length: 4751 seconds
#
# Revision: 0
# Processed by: cddbd v1.5.2PL0 Copyright (c) Steve Scherf et al.
# Submitted via: ExactAudioCopy v1.3
#
DISCID=05128d11
DTITLE=Various Artist - Akella Presents - vol. 212 - Various Styles O
DTITLE=f Blues  CD1
DYEAR=2019
DGENRE=Blues
TTITLE0=Fabian Anderhub - Boom Town
TTITLE1=Matty T Wall - Born Under A Bad Sign
TTITLE2=Larry Miller - I Want My Life Back
TTITLE3=Mr. Bo and The Voodooers - Going up North
TTITLE4=Tas Cru - Daddy Didn't Give You Much
TTITLE5=Sloe Train - Family Man
TTITLE6=Angel Forrest - Tell Me Why
TTITLE7=Andreas Diehlmann Band - Don't Go
TTITLE8=Tubesnakes - You Dont Know Loving Yet
TTITLE9=Blindstone - Deliverance At The Crossroads
TTITLE10=John Blues Boyd - What My Eyes Have Seen
TTITLE11=Sammy Eubanks - I Just Want To Make Love To You
TTITLE12=John Verity - Double Trouble
TTITLE13=Klaus Tietz - No Reason
TTITLE14=Steve Tracy and the Crawling Kingsnakes - Tremble
TTITLE15=Charles Tuberville - Soul Traveler
TTITLE16=Luca Lionetti - Riviera Paradise
EXTD=
EXTT0=
EXTT1=
EXTT2=
EXTT3=
EXTT4=
EXTT5=
EXTT6=
EXTT7=
EXTT8=
EXTT9=
EXTT10=
EXTT11=
EXTT12=
EXTT13=
EXTT14=
EXTT15=
EXTT16=
PLAYORDER=
